<svg width="32" height="32" viewBox="0 0 32 32" fill="none" xmlns="http://www.w3.org/2000/svg">
<path d="M4.84521 11.3335V9.8335C4.01679 9.8335 3.34522 10.5051 3.34521 11.3335L4.84521 11.3335ZM24.8452 11.3335H26.3452C26.3452 10.5051 25.6736 9.8335 24.8452 9.8335V11.3335ZM28.3452 23.4695C28.3452 22.6411 27.6736 21.9695 26.8452 21.9695C26.0168 21.9695 25.3452 22.6411 25.3452 23.4695H28.3452ZM4.34521 23.4695C4.34521 22.6411 3.67364 21.9695 2.84521 21.9695C2.01679 21.9695 1.34521 22.6411 1.34521 23.4695H4.34521ZM25.1549 11.3028C24.3265 11.3028 23.6549 11.9744 23.6549 12.8028C23.6549 13.6312 24.3265 14.3028 25.1549 14.3028V11.3028ZM29.0596 12.8028L30.5351 12.5328C30.4047 11.8203 29.7838 11.3028 29.0596 11.3028V12.8028ZM25.1549 16.6362C24.3265 16.6362 23.6549 17.3077 23.6549 18.1362C23.6549 18.9646 24.3265 19.6362 25.1549 19.6362V16.6362ZM13.4198 7.57757C12.9049 8.22652 13.0135 9.17003 13.6625 9.68496C14.3114 10.1999 15.255 10.0912 15.7699 9.44229L13.4198 7.57757ZM14.5949 5.16703L15.7647 4.22812L15.7647 4.22812L14.5949 5.16703ZM16.4028 3.04999C17.0693 2.55793 17.2107 1.61876 16.7186 0.952303C16.2265 0.285845 15.2874 0.144471 14.6209 0.636534L16.4028 3.04999ZM8.06915 7.57757C7.55422 8.22652 7.66287 9.17003 8.31182 9.68496C8.96078 10.1999 9.90429 10.0912 10.4192 9.44229L8.06915 7.57757ZM9.24418 5.16703L10.414 4.22812L10.414 4.22812L9.24418 5.16703ZM11.0522 3.04999C11.7186 2.55793 11.86 1.61876 11.3679 0.952303C10.8759 0.285845 9.93671 0.144471 9.27025 0.636534L11.0522 3.04999ZM18.7708 7.57757C18.2559 8.22652 18.3645 9.17003 19.0135 9.68496C19.6624 10.1999 20.6059 10.0912 21.1209 9.44229L18.7708 7.57757ZM21.7538 3.04999C22.4203 2.55793 22.5616 1.61876 22.0696 0.952303C21.5775 0.285845 20.6384 0.144471 19.9719 0.636534L21.7538 3.04999ZM3.34521 11.3335C3.34521 13.6876 3.43312 17.6325 4.86345 21.0184C5.5898 22.7378 6.68794 24.3783 8.35183 25.5855C10.0284 26.802 12.1721 27.5002 14.8452 27.5002V24.5002C12.7184 24.5002 11.212 23.9543 10.1136 23.1573C9.00248 22.3512 8.20063 21.2089 7.62698 19.851C6.4573 17.0821 6.34521 13.6937 6.34521 11.3335L3.34521 11.3335ZM14.8452 27.5002C17.5009 27.5002 19.637 26.8439 21.3146 25.6762C22.9844 24.514 24.0904 22.9216 24.8224 21.2255C26.2596 17.8957 26.3452 13.9377 26.3452 11.3335H23.3452C23.3452 13.9674 23.2308 17.3427 22.068 20.0367C21.5001 21.3526 20.706 22.4447 19.6008 23.214C18.5034 23.9778 16.9895 24.5002 14.8452 24.5002V27.5002ZM24.8452 9.8335H4.84521V12.8335H24.8452V9.8335ZM25.3452 23.4695C25.3452 24.5183 24.5623 25.7833 22.602 26.8723C20.6926 27.9331 17.9531 28.6361 14.8452 28.6361V31.6361C18.3648 31.6361 21.6253 30.8468 24.059 29.4948C26.4418 28.1709 28.3452 26.1025 28.3452 23.4695H25.3452ZM14.8452 28.6361C11.7373 28.6361 8.99784 27.9331 7.0884 26.8723C5.12814 25.7833 4.34521 24.5183 4.34521 23.4695H1.34521C1.34521 26.1025 3.24858 28.1709 5.63147 29.4948C8.06517 30.8468 11.3257 31.6361 14.8452 31.6361V28.6361ZM25.1549 14.3028H29.0596V11.3028H25.1549V14.3028ZM27.5841 13.0729C27.7118 13.7709 27.6882 14.7578 27.339 15.4916C27.177 15.8322 26.9568 16.0962 26.6598 16.2829C26.363 16.4694 25.898 16.6362 25.1549 16.6362V19.6362C26.3642 19.6362 27.4041 19.3585 28.2563 18.8228C29.1084 18.2872 29.6813 17.5513 30.048 16.7807C30.7563 15.2923 30.7327 13.6125 30.5351 12.5328L27.5841 13.0729ZM15.7699 9.44229C16.4233 8.61877 17.4632 6.34437 15.7647 4.22812L13.425 6.10593C13.6718 6.41335 13.7063 6.68681 13.6742 6.93385C13.6357 7.23069 13.4943 7.48373 13.4198 7.57757L15.7699 9.44229ZM15.7647 4.22812C15.6799 4.12257 15.6796 4.07211 15.6789 4.06213C15.6771 4.03471 15.6803 3.96145 15.739 3.83154C15.8712 3.5387 16.1638 3.22651 16.4028 3.04999L14.6209 0.636534C14.1097 1.01397 13.4102 1.69891 13.0047 2.59709C12.5619 3.57802 12.4575 4.90039 13.425 6.10593L15.7647 4.22812ZM10.4192 9.44229C11.0727 8.61877 12.1125 6.34437 10.414 4.22812L8.07437 6.10593C8.32111 6.41335 8.35561 6.68681 8.32355 6.93385C8.28502 7.23069 8.14361 7.48373 8.06915 7.57757L10.4192 9.44229ZM10.414 4.22812C10.3293 4.12257 10.329 4.07211 10.3283 4.06213C10.3264 4.03471 10.3297 3.96145 10.3883 3.83154C10.5205 3.5387 10.8131 3.22651 11.0522 3.04999L9.27025 0.636534C8.75905 1.01397 8.05956 1.69891 7.65406 2.59709C7.2112 3.57802 7.10679 4.90039 8.07437 6.10593L10.414 4.22812ZM21.1209 9.44229C21.7743 8.61877 22.8142 6.34437 21.1156 4.22812L18.776 6.10593C19.0228 6.41335 19.0572 6.68681 19.0252 6.93385C18.9867 7.23069 18.8453 7.48373 18.7708 7.57757L21.1209 9.44229ZM21.1156 4.22812C21.0309 4.12257 21.0306 4.07211 21.0299 4.06213C21.028 4.03471 21.0313 3.96145 21.09 3.83154C21.2222 3.5387 21.5147 3.22651 21.7538 3.04999L19.9719 0.636534C19.4607 1.01397 18.7612 1.69891 18.3557 2.59709C17.9128 3.57802 17.8084 4.90039 18.776 6.10593L21.1156 4.22812Z" fill="#FBF8F0"/>
</svg>
