<svg width="292" height="41" viewBox="0 0 292 41" fill="none" xmlns="http://www.w3.org/2000/svg">
<path d="M18.112 16.768C17.8347 14.9973 17.2373 13.664 16.32 12.768C15.424 11.872 14.2293 11.4133 12.736 11.392C11.6267 11.392 10.656 11.648 9.824 12.16C8.992 12.672 8.29867 13.3547 7.744 14.208C7.21067 15.0613 6.80533 16.032 6.528 17.12C6.272 18.208 6.144 19.328 6.144 20.48C6.144 22.3147 6.4 23.9467 6.912 25.376C7.44533 26.784 8.21333 27.8933 9.216 28.704C10.2187 29.5147 11.4347 29.92 12.864 29.92C14.208 29.92 15.5413 29.5787 16.864 28.896C18.1867 28.192 19.296 27.2213 20.192 25.984L21.728 27.392C20.6827 28.8213 19.584 29.9093 18.432 30.656C17.28 31.3813 16.1493 31.872 15.04 32.128C13.952 32.384 12.9707 32.512 12.096 32.512C10.4533 32.512 8.96 32.224 7.616 31.648C6.272 31.0507 5.10933 30.24 4.128 29.216C3.168 28.1707 2.42133 26.9653 1.888 25.6C1.376 24.2133 1.12 22.72 1.12 21.12C1.12 19.6693 1.35467 18.2293 1.824 16.8C2.29333 15.3707 2.98667 14.08 3.904 12.928C4.84267 11.7547 6.016 10.8267 7.424 10.144C8.832 9.44 10.464 9.088 12.32 9.088C13.152 9.088 14.0587 9.22667 15.04 9.504C16.0427 9.76 16.9813 10.144 17.856 10.656L17.728 9.312H20.192V16.768H18.112Z" fill="#FBF8F0"/>
<path d="M28.8452 15.3333V13.8333C28.0168 13.8333 27.3452 14.5049 27.3452 15.3333L28.8452 15.3333ZM48.8452 15.3333H50.3452C50.3452 14.5049 49.6736 13.8333 48.8452 13.8333V15.3333ZM52.3452 27.4693C52.3452 26.6409 51.6736 25.9693 50.8452 25.9693C50.0168 25.9693 49.3452 26.6409 49.3452 27.4693H52.3452ZM28.3452 27.4693C28.3452 26.6409 27.6736 25.9693 26.8452 25.9693C26.0168 25.9693 25.3452 26.6409 25.3452 27.4693H28.3452ZM49.1549 15.3027C48.3265 15.3027 47.6549 15.9742 47.6549 16.8027C47.6549 17.6311 48.3265 18.3027 49.1549 18.3027V15.3027ZM53.0596 16.8027L54.5351 16.5326C54.4047 15.8202 53.7838 15.3027 53.0596 15.3027V16.8027ZM49.1549 20.636C48.3265 20.636 47.6549 21.3076 47.6549 22.136C47.6549 22.9644 48.3265 23.636 49.1549 23.636V20.636ZM37.4198 11.5774C36.9049 12.2264 37.0135 13.1699 37.6625 13.6848C38.3114 14.1997 39.255 14.0911 39.7699 13.4421L37.4198 11.5774ZM38.5949 9.16687L39.7647 8.22797V8.22797L38.5949 9.16687ZM40.4028 7.04984C41.0693 6.55777 41.2107 5.61861 40.7186 4.95215C40.2265 4.28569 39.2874 4.14432 38.6209 4.63638L40.4028 7.04984ZM32.0692 11.5774C31.5542 12.2264 31.6629 13.1699 32.3118 13.6848C32.9608 14.1997 33.9043 14.0911 34.4192 13.4421L32.0692 11.5774ZM33.2442 9.16687L34.414 8.22797V8.22797L33.2442 9.16687ZM35.0522 7.04984C35.7186 6.55777 35.86 5.61861 35.3679 4.95215C34.8759 4.28569 33.9367 4.14432 33.2703 4.63638L35.0522 7.04984ZM42.7708 11.5774C42.2559 12.2264 42.3645 13.1699 43.0135 13.6848C43.6624 14.1997 44.6059 14.0911 45.1209 13.4421L42.7708 11.5774ZM45.7538 7.04984C46.4203 6.55777 46.5616 5.61861 46.0696 4.95215C45.5775 4.28569 44.6383 4.14432 43.9719 4.63638L45.7538 7.04984ZM27.3452 15.3333C27.3452 17.6874 27.4331 21.6324 28.8634 25.0182C29.5898 26.7377 30.6879 28.3782 32.3518 29.5854C34.0284 30.8018 36.1721 31.5 38.8452 31.5V28.5C36.7184 28.5 35.212 27.9542 34.1136 27.1572C33.0025 26.351 32.2006 25.2088 31.627 23.8508C30.4573 21.0819 30.3452 17.6935 30.3452 15.3333L27.3452 15.3333ZM38.8452 31.5C41.5009 31.5 43.637 30.8438 45.3146 29.6761C46.9844 28.5138 48.0904 26.9214 48.8224 25.2254C50.2596 21.8955 50.3452 17.9375 50.3452 15.3333H47.3452C47.3452 17.9673 47.2308 21.3426 46.068 24.0365C45.5001 25.3524 44.706 26.4445 43.6008 27.2138C42.5034 27.9777 40.9895 28.5 38.8452 28.5V31.5ZM48.8452 13.8333H28.8452V16.8333H48.8452V13.8333ZM49.3452 27.4693C49.3452 28.5182 48.5623 29.7831 46.602 30.8721C44.6926 31.9329 41.9531 32.636 38.8452 32.636V35.636C42.3648 35.636 45.6253 34.8467 48.059 33.4946C50.4418 32.1708 52.3452 30.1024 52.3452 27.4693H49.3452ZM38.8452 32.636C35.7373 32.636 32.9978 31.9329 31.0884 30.8721C29.1281 29.7831 28.3452 28.5182 28.3452 27.4693H25.3452C25.3452 30.1024 27.2486 32.1708 29.6315 33.4946C32.0652 34.8467 35.3257 35.636 38.8452 35.636V32.636ZM49.1549 18.3027H53.0596V15.3027H49.1549V18.3027ZM51.5841 17.0727C51.7118 17.7708 51.6882 18.7577 51.3391 19.4914C51.177 19.832 50.9568 20.0961 50.6598 20.2827C50.363 20.4693 49.898 20.636 49.1549 20.636V23.636C50.3642 23.636 51.4041 23.3583 52.2563 22.8226C53.1084 22.287 53.6813 21.5511 54.048 20.7806C54.7563 19.2921 54.7327 17.6123 54.5351 16.5326L51.5841 17.0727ZM39.7699 13.4421C40.4233 12.6186 41.4632 10.3442 39.7647 8.22797L37.425 10.1058C37.6718 10.4132 37.7063 10.6867 37.6742 10.9337C37.6357 11.2305 37.4943 11.4836 37.4198 11.5774L39.7699 13.4421ZM39.7647 8.22797C39.6799 8.12241 39.6796 8.07195 39.6789 8.06197C39.6771 8.03456 39.6803 7.96129 39.739 7.83138C39.8712 7.53855 40.1638 7.22636 40.4028 7.04984L38.6209 4.63638C38.1097 5.01382 37.4102 5.69876 37.0047 6.59694C36.5619 7.57787 36.4575 8.90024 37.425 10.1058L39.7647 8.22797ZM34.4192 13.4421C35.0727 12.6186 36.1125 10.3442 34.414 8.22797L32.0744 10.1058C32.3211 10.4132 32.3556 10.6867 32.3235 10.9337C32.285 11.2305 32.1436 11.4836 32.0692 11.5774L34.4192 13.4421ZM34.414 8.22797C34.3293 8.12241 34.329 8.07195 34.3283 8.06197C34.3264 8.03456 34.3297 7.96129 34.3883 7.83138C34.5205 7.53855 34.8131 7.22636 35.0522 7.04984L33.2703 4.63638C32.759 5.01382 32.0596 5.69876 31.6541 6.59694C31.2112 7.57787 31.1068 8.90024 32.0744 10.1058L34.414 8.22797ZM45.1209 13.4421C45.7743 12.6186 46.8142 10.3442 45.1156 8.22797L42.776 10.1058C43.0228 10.4132 43.0572 10.6867 43.0252 10.9337C42.9867 11.2305 42.8453 11.4836 42.7708 11.5774L45.1209 13.4421ZM45.1156 8.22797C45.0309 8.12241 45.0306 8.07195 45.0299 8.06197C45.028 8.03456 45.0313 7.96129 45.09 7.83138C45.2222 7.53855 45.5147 7.22636 45.7538 7.04984L43.9719 4.63638C43.4607 5.01382 42.7612 5.69876 42.3557 6.59694C41.9128 7.57787 41.8084 8.90024 42.776 10.1058L45.1156 8.22797Z" fill="#E68541"/>
<path d="M58.6 32V29.888C59.0907 29.8667 59.496 29.8027 59.816 29.696C60.1573 29.5893 60.4133 29.344 60.584 28.96C60.776 28.576 60.872 27.9573 60.872 27.104V14.848C60.872 14.272 60.8827 13.7173 60.904 13.184C60.9467 12.6507 60.9787 12.2453 61 11.968C60.6587 11.9893 60.232 12.0107 59.72 12.032C59.208 12.032 58.8347 12.0427 58.6 12.064V9.6H74.6L74.792 15.808H72.68C72.68 14.6347 72.4773 13.7493 72.072 13.152C71.6667 12.5547 71.1653 12.16 70.568 11.968C69.9707 11.7547 69.384 11.6587 68.808 11.68L67.656 11.712C67.208 11.712 66.824 11.776 66.504 11.904C66.184 12.0107 65.9387 12.2667 65.768 12.672C65.5973 13.056 65.512 13.664 65.512 14.496V20.064H68.808L68.68 17.312H71.144V25.088H69.032C69.032 24.192 68.8933 23.5413 68.616 23.136C68.3387 22.7307 67.9547 22.4853 67.464 22.4C66.9947 22.2933 66.472 22.2507 65.896 22.272H65.512V26.752C65.512 27.328 65.5013 27.8827 65.48 28.416C65.4587 28.9493 65.4267 29.3547 65.384 29.632C65.6187 29.6107 65.928 29.6 66.312 29.6C66.696 29.5787 67.0693 29.568 67.432 29.568C67.816 29.5467 68.0827 29.536 68.232 29.536V32H58.6ZM77.8813 32V29.888C78.3719 29.8667 78.7773 29.8027 79.0973 29.696C79.4386 29.5893 79.6946 29.344 79.8653 28.96C80.0573 28.576 80.1533 27.9573 80.1533 27.104V14.848C80.1533 14.272 80.1639 13.7173 80.1853 13.184C80.2279 12.6507 80.2599 12.2453 80.2812 11.968C79.9399 11.9893 79.5133 12.0107 79.0013 12.032C78.4893 12.032 78.1159 12.0427 77.8813 12.064V9.6H93.8813L94.0733 15.808H91.9613C91.9613 14.6347 91.7586 13.7493 91.3533 13.152C90.9479 12.5547 90.4466 12.16 89.8493 11.968C89.2519 11.7547 88.6653 11.6587 88.0893 11.68L86.9373 11.712C86.4893 11.712 86.1053 11.776 85.7853 11.904C85.4653 12.0107 85.2199 12.2667 85.0493 12.672C84.8786 13.056 84.7933 13.664 84.7933 14.496V20.064H88.0893L87.9613 17.312H90.4253V25.088H88.3133C88.3133 24.192 88.1746 23.5413 87.8973 23.136C87.6199 22.7307 87.2359 22.4853 86.7453 22.4C86.2759 22.2933 85.7533 22.2507 85.1773 22.272H84.7933V26.752C84.7933 27.328 84.7826 27.8827 84.7613 28.416C84.7399 28.9493 84.7079 29.3547 84.6653 29.632C84.8999 29.6107 85.2093 29.6 85.5933 29.6C85.9773 29.5787 86.3506 29.568 86.7133 29.568C87.0973 29.5467 87.3639 29.536 87.5133 29.536V32H77.8813ZM108.043 24.288C108.043 23.392 107.904 22.752 107.627 22.368C107.349 21.9627 106.965 21.7067 106.475 21.6C106.005 21.4933 105.483 21.4507 104.907 21.472L104.075 21.504V26.752C104.075 27.328 104.064 27.872 104.043 28.384C104.021 28.896 103.989 29.2907 103.947 29.568H108.235C108.875 29.568 109.493 29.4293 110.091 29.152C110.688 28.8533 111.179 28.3733 111.562 27.712C111.947 27.0293 112.139 26.112 112.139 24.96H114.219L114.059 32H97.1625V29.888C97.6532 29.8667 98.0585 29.8027 98.3785 29.696C98.7198 29.5893 98.9758 29.344 99.1465 28.96C99.3385 28.576 99.4345 27.9573 99.4345 27.104V14.848C99.4345 14.272 99.4452 13.7173 99.4665 13.184C99.5092 12.6507 99.5412 12.2453 99.5625 11.968C99.2212 11.9893 98.7945 12.0107 98.2825 12.032C97.7705 12.032 97.3972 12.0427 97.1625 12.064V9.6H113.163L113.355 15.808H111.243C111.243 14.6347 111.04 13.7493 110.635 13.152C110.229 12.5547 109.728 12.16 109.131 11.968C108.533 11.7547 107.947 11.6587 107.371 11.68L106.219 11.712C105.771 11.712 105.387 11.776 105.067 11.904C104.747 12.0107 104.501 12.2667 104.331 12.672C104.16 13.056 104.075 13.664 104.075 14.496V19.296H107.819L107.691 16.512H110.155V24.288H108.043ZM129.011 24.288C129.011 23.392 128.873 22.752 128.595 22.368C128.318 21.9627 127.934 21.7067 127.443 21.6C126.974 21.4933 126.451 21.4507 125.875 21.472L125.043 21.504V26.752C125.043 27.328 125.033 27.872 125.011 28.384C124.99 28.896 124.958 29.2907 124.915 29.568H129.203C129.843 29.568 130.462 29.4293 131.059 29.152C131.657 28.8533 132.147 28.3733 132.531 27.712C132.915 27.0293 133.107 26.112 133.107 24.96H135.187L135.027 32H118.131V29.888C118.622 29.8667 119.027 29.8027 119.347 29.696C119.689 29.5893 119.945 29.344 120.115 28.96C120.307 28.576 120.403 27.9573 120.403 27.104V14.848C120.403 14.272 120.414 13.7173 120.435 13.184C120.478 12.6507 120.51 12.2453 120.531 11.968C120.19 11.9893 119.763 12.0107 119.251 12.032C118.739 12.032 118.366 12.0427 118.131 12.064V9.6H134.131L134.323 15.808H132.211C132.211 14.6347 132.009 13.7493 131.603 13.152C131.198 12.5547 130.697 12.16 130.099 11.968C129.502 11.7547 128.915 11.6587 128.339 11.68L127.187 11.712C126.739 11.712 126.355 11.776 126.035 11.904C125.715 12.0107 125.47 12.2667 125.299 12.672C125.129 13.056 125.043 13.664 125.043 14.496V19.296H128.787L128.659 16.512H131.123V24.288H129.011Z" fill="#FBF8F0"/>
<path d="M176.112 16.768C175.835 14.9973 175.237 13.664 174.32 12.768C173.424 11.872 172.229 11.4133 170.736 11.392C169.627 11.392 168.656 11.648 167.824 12.16C166.992 12.672 166.299 13.3547 165.744 14.208C165.211 15.0613 164.805 16.032 164.528 17.12C164.272 18.208 164.144 19.328 164.144 20.48C164.144 22.3147 164.4 23.9467 164.912 25.376C165.445 26.784 166.213 27.8933 167.216 28.704C168.219 29.5147 169.435 29.92 170.864 29.92C172.208 29.92 173.541 29.5787 174.864 28.896C176.187 28.192 177.296 27.2213 178.192 25.984L179.728 27.392C178.683 28.8213 177.584 29.9093 176.432 30.656C175.28 31.3813 174.149 31.872 173.04 32.128C171.952 32.384 170.971 32.512 170.096 32.512C168.453 32.512 166.96 32.224 165.616 31.648C164.272 31.0507 163.109 30.24 162.128 29.216C161.168 28.1707 160.421 26.9653 159.888 25.6C159.376 24.2133 159.12 22.72 159.12 21.12C159.12 19.6693 159.355 18.2293 159.824 16.8C160.293 15.3707 160.987 14.08 161.904 12.928C162.843 11.7547 164.016 10.8267 165.424 10.144C166.832 9.44 168.464 9.088 170.32 9.088C171.152 9.088 172.059 9.22667 173.04 9.504C174.043 9.76 174.981 10.144 175.856 10.656L175.728 9.312H178.192V16.768H176.112ZM182.631 32V29.888C183.122 29.8667 183.527 29.8027 183.847 29.696C184.189 29.5893 184.445 29.344 184.615 28.96C184.807 28.576 184.903 27.9573 184.903 27.104V14.848C184.903 14.272 184.914 13.7173 184.935 13.184C184.978 12.6507 185.01 12.2453 185.031 11.968C184.69 11.9893 184.263 12.0107 183.751 12.032C183.239 12.032 182.866 12.0427 182.631 12.064V9.6H191.815V11.712C191.346 11.7333 190.941 11.7973 190.599 11.904C190.258 12.0107 189.991 12.256 189.799 12.64C189.629 13.0027 189.543 13.6213 189.543 14.496V19.488H198.343V14.848C198.343 14.272 198.354 13.7173 198.375 13.184C198.397 12.6507 198.429 12.2453 198.471 11.968C198.13 11.9893 197.703 12.0107 197.191 12.032C196.679 12.032 196.306 12.0427 196.071 12.064V9.6H205.255V11.712C204.786 11.7333 204.381 11.7973 204.039 11.904C203.698 12.0107 203.431 12.256 203.239 12.64C203.069 13.0027 202.983 13.6213 202.983 14.496V26.752C202.983 27.328 202.973 27.8827 202.951 28.416C202.93 28.9493 202.898 29.3547 202.855 29.632C203.197 29.5893 203.623 29.568 204.135 29.568C204.669 29.5467 205.042 29.536 205.255 29.536V32H196.071V29.888C196.562 29.8667 196.967 29.8027 197.287 29.696C197.629 29.5893 197.885 29.344 198.055 28.96C198.247 28.576 198.343 27.9573 198.343 27.104V21.92L189.543 22.016V26.752C189.543 27.328 189.533 27.8827 189.511 28.416C189.49 28.9493 189.458 29.3547 189.415 29.632C189.757 29.5893 190.183 29.568 190.695 29.568C191.229 29.5467 191.602 29.536 191.815 29.536V32H182.631Z" fill="#FBF8F0"/>
<path d="M224.034 33.3334C226.223 31.1071 229.424 25.3492 224.034 20.0034C218.643 14.6577 220.085 8.83877 224.034 6.66666M215.599 33.3677C217.789 31.1414 220.99 25.3835 215.599 20.0378C210.209 14.692 211.651 8.87311 215.599 6.701M232.933 33.3677C235.122 31.1414 238.323 25.3835 232.933 20.0378C227.543 14.692 228.984 8.87311 232.933 6.701" stroke="#E68541" stroke-width="4" stroke-linecap="round" stroke-linejoin="round"/>
<path d="M259.624 32.32L249.384 19.232C249.107 18.8693 248.819 18.4853 248.52 18.08C248.221 17.6747 247.923 17.2587 247.624 16.832H247.592L247.656 26.752C247.656 27.328 247.645 27.8827 247.624 28.416C247.603 28.9493 247.571 29.3547 247.528 29.632C247.869 29.5893 248.296 29.568 248.808 29.568C249.341 29.5467 249.715 29.536 249.928 29.536V32H242.632V29.888C243.123 29.8667 243.528 29.8027 243.848 29.696C244.189 29.5893 244.445 29.344 244.616 28.96C244.808 28.576 244.904 27.9573 244.904 27.104L244.84 14.848C244.84 14.272 244.851 13.7173 244.872 13.184C244.893 12.6507 244.925 12.2453 244.968 11.968C244.627 11.9893 244.189 12.0107 243.656 12.032C243.144 12.032 242.771 12.0427 242.536 12.064V9.6H247.56L257.352 21.952C257.885 22.6347 258.323 23.2213 258.664 23.712C259.027 24.2027 259.336 24.6293 259.592 24.992H259.624V14.848C259.624 14.272 259.635 13.7173 259.656 13.184C259.677 12.6507 259.699 12.2453 259.72 11.968C259.379 11.9893 258.952 12.0107 258.44 12.032C257.928 12.032 257.555 12.0427 257.32 12.064V9.6H264.616V11.712C264.147 11.7333 263.741 11.7973 263.4 11.904C263.059 12.0107 262.792 12.256 262.6 12.64C262.429 13.0027 262.344 13.6213 262.344 14.496V32.32H259.624ZM278.694 32.512C276.667 32.512 274.939 32.1707 273.51 31.488C272.102 30.8053 270.96 29.8987 270.086 28.768C269.211 27.616 268.571 26.3467 268.166 24.96C267.76 23.5733 267.558 22.1867 267.558 20.8C267.558 19.456 267.782 18.1013 268.23 16.736C268.699 15.3493 269.392 14.08 270.31 12.928C271.248 11.776 272.422 10.848 273.83 10.144C275.238 9.44 276.891 9.088 278.79 9.088C280.731 9.088 282.406 9.44 283.814 10.144C285.222 10.848 286.374 11.7867 287.27 12.96C288.166 14.112 288.827 15.3707 289.254 16.736C289.702 18.1013 289.926 19.456 289.926 20.8C289.926 22.1227 289.691 23.4667 289.222 24.832C288.774 26.1973 288.08 27.4667 287.142 28.64C286.224 29.792 285.062 30.7307 283.654 31.456C282.246 32.16 280.592 32.512 278.694 32.512ZM279.046 30.176C280.155 30.176 281.083 29.9093 281.83 29.376C282.576 28.8213 283.174 28.1067 283.622 27.232C284.07 26.3573 284.39 25.408 284.582 24.384C284.774 23.3387 284.87 22.3253 284.87 21.344C284.87 19.872 284.742 18.528 284.486 17.312C284.23 16.096 283.835 15.0507 283.302 14.176C282.768 13.28 282.086 12.5973 281.254 12.128C280.443 11.6373 279.483 11.4027 278.374 11.424C277.286 11.4453 276.368 11.744 275.622 12.32C274.875 12.8747 274.278 13.6 273.83 14.496C273.382 15.3707 273.062 16.3307 272.87 17.376C272.678 18.4213 272.582 19.4347 272.582 20.416C272.582 21.4187 272.688 22.4853 272.902 23.616C273.136 24.7467 273.499 25.8133 273.99 26.816C274.48 27.8187 275.142 28.6293 275.974 29.248C276.806 29.8667 277.83 30.176 279.046 30.176Z" fill="#FBF8F0"/>
</svg>
