<svg width="228" height="36" viewBox="0 0 228 36" fill="none" xmlns="http://www.w3.org/2000/svg">
<path d="M10.2197 12.9482C9.46647 12.9482 8.79785 13.0964 8.21387 13.3926C7.63835 13.6803 7.15169 14.0993 6.75391 14.6494C6.36458 15.1995 6.06836 15.8639 5.86523 16.6426C5.66211 17.4212 5.56055 18.2972 5.56055 19.2705C5.56055 20.5824 5.72135 21.7038 6.04297 22.6348C6.37305 23.5573 6.88086 24.264 7.56641 24.7549C8.25195 25.2373 9.13639 25.4785 10.2197 25.4785C10.973 25.4785 11.7262 25.3939 12.4795 25.2246C13.2412 25.0553 14.0664 24.8141 14.9551 24.501V27.8018C14.1341 28.1403 13.3258 28.3815 12.5303 28.5254C11.7347 28.6777 10.8418 28.7539 9.85156 28.7539C7.9388 28.7539 6.36458 28.3604 5.12891 27.5732C3.90169 26.7777 2.99186 25.6689 2.39941 24.2471C1.80697 22.8167 1.51074 21.1494 1.51074 19.2451C1.51074 17.8402 1.70117 16.5537 2.08203 15.3857C2.46289 14.2178 3.02148 13.2064 3.75781 12.3516C4.49414 11.4967 5.40397 10.8366 6.4873 10.3711C7.57064 9.9056 8.81478 9.67285 10.2197 9.67285C11.1423 9.67285 12.0648 9.79134 12.9873 10.0283C13.9183 10.2568 14.807 10.5742 15.6533 10.9805L14.3838 14.1797C13.6898 13.8496 12.9915 13.5618 12.2891 13.3164C11.5866 13.071 10.8968 12.9482 10.2197 12.9482Z" fill="#FBF8F0"/>
<g clip-path="url(#clip0_26_527)">
<path d="M21.647 15.5853V14.5853C21.0947 14.5853 20.647 15.033 20.647 15.5853L21.647 15.5853ZM35.397 15.5853H36.397C36.397 15.033 35.9493 14.5853 35.397 14.5853V15.5853ZM37.772 23.9288C37.772 23.3765 37.3243 22.9288 36.772 22.9288C36.2197 22.9288 35.772 23.3765 35.772 23.9288H37.772ZM21.272 23.9288C21.272 23.3765 20.8243 22.9288 20.272 22.9288C19.7197 22.9288 19.272 23.3765 19.272 23.9288H21.272ZM35.6099 15.5955C35.0576 15.5955 34.6099 16.0432 34.6099 16.5955C34.6099 17.1478 35.0576 17.5955 35.6099 17.5955V15.5955ZM38.2943 16.5955L39.278 16.4154C39.1911 15.9405 38.7772 15.5955 38.2943 15.5955V16.5955ZM35.6099 19.2622C35.0576 19.2622 34.6099 19.7099 34.6099 20.2622C34.6099 20.8144 35.0576 21.2622 35.6099 21.2622V19.2622ZM27.5665 13.0226C27.2232 13.4552 27.2956 14.0842 27.7283 14.4275C28.1609 14.7708 28.7899 14.6983 29.1332 14.2657L27.5665 13.0226ZM28.3498 11.3459L29.1297 10.7199V10.7199L28.3498 11.3459ZM29.5743 9.86528C30.0186 9.53723 30.1128 8.91112 29.7848 8.46682C29.4567 8.02251 28.8306 7.92826 28.3863 8.25631L29.5743 9.86528ZM23.8879 13.0226C23.5446 13.4552 23.6171 14.0842 24.0497 14.4275C24.4823 14.7708 25.1113 14.6983 25.4546 14.2657L23.8879 13.0226ZM24.6713 11.3459L25.4511 10.7199V10.7199L24.6713 11.3459ZM25.8957 9.86528C26.34 9.53723 26.4342 8.91112 26.1062 8.46682C25.7782 8.02251 25.1521 7.92826 24.7077 8.25631L25.8957 9.86528ZM31.2453 13.0226C30.902 13.4552 30.9744 14.0842 31.4071 14.4275C31.8397 14.7708 32.4687 14.6983 32.812 14.2657L31.2453 13.0226ZM33.2531 9.86528C33.6974 9.53723 33.7916 8.91112 33.4636 8.46682C33.1355 8.02251 32.5094 7.92826 32.0651 8.25631L33.2531 9.86528ZM20.647 15.5853C20.647 17.2038 20.7077 19.9102 21.6883 22.2315C22.1861 23.4099 22.938 24.5325 24.0761 25.3583C25.2227 26.1902 26.6899 26.6687 28.522 26.6687V24.6687C27.0541 24.6687 26.0118 24.2918 25.2506 23.7395C24.481 23.1811 23.9266 22.3906 23.5307 21.4533C22.7238 19.5432 22.647 17.2079 22.647 15.5853L20.647 15.5853ZM28.522 26.6687C30.3424 26.6687 31.8045 26.2189 32.9519 25.4203C34.0939 24.6254 34.851 23.5358 35.3526 22.3737C36.3378 20.0911 36.397 17.376 36.397 15.5853H34.397C34.397 17.3958 34.3186 19.7224 33.5163 21.5812C33.1242 22.4898 32.575 23.2458 31.8093 23.7788C31.0488 24.3081 30.0015 24.6687 28.522 24.6687V26.6687ZM35.397 14.5853H21.647V16.5853H35.397V14.5853ZM35.772 23.9288C35.772 24.6664 35.222 25.5444 33.87 26.2956C32.5518 27.0279 30.6629 27.5122 28.522 27.5122V29.5122C30.9374 29.5122 33.1735 28.9704 34.8412 28.0439C36.4751 27.1362 37.772 25.7225 37.772 23.9288H35.772ZM28.522 27.5122C26.381 27.5122 24.4922 27.0279 23.174 26.2956C21.8219 25.5444 21.272 24.6664 21.272 23.9288H19.272C19.272 25.7225 20.5689 27.1362 22.2027 28.0439C23.8704 28.9704 26.1066 29.5122 28.522 29.5122V27.5122ZM35.6099 17.5955H38.2943V15.5955H35.6099V17.5955ZM37.3107 16.7755C37.3992 17.2594 37.3835 17.9451 37.1397 18.4574C37.0262 18.6961 36.8711 18.8825 36.6611 19.0145C36.4513 19.1464 36.1256 19.2622 35.6099 19.2622V21.2622C36.4364 21.2622 37.1454 21.0724 37.7255 20.7078C38.3055 20.3432 38.6957 19.8421 38.9456 19.3169C39.4289 18.3014 39.4131 17.1538 39.278 16.4154L37.3107 16.7755ZM29.1332 14.2657C29.5781 13.705 30.2843 12.1585 29.1297 10.7199L27.57 11.9718C27.7456 12.1906 27.7709 12.3874 27.7479 12.5646C27.7206 12.775 27.6208 12.9542 27.5665 13.0226L29.1332 14.2657ZM29.1297 10.7199C29.0677 10.6426 29.0649 10.6019 29.064 10.5884C29.0623 10.5632 29.0661 10.5077 29.108 10.4149C29.2017 10.2072 29.4071 9.98873 29.5743 9.86528L28.3863 8.25631C28.0377 8.5137 27.5611 8.98072 27.2851 9.59191C26.9843 10.2583 26.9138 11.1543 27.57 11.9718L29.1297 10.7199ZM25.4546 14.2657C25.8995 13.705 26.6057 12.1585 25.4511 10.7199L23.8914 11.9718C24.067 12.1906 24.0923 12.3874 24.0693 12.5646C24.042 12.775 23.9422 12.9542 23.8879 13.0226L25.4546 14.2657ZM25.4511 10.7199C25.3891 10.6426 25.3863 10.6019 25.3854 10.5884C25.3837 10.5632 25.3875 10.5077 25.4294 10.4149C25.5231 10.2072 25.7285 9.98873 25.8957 9.86528L24.7077 8.25631C24.3591 8.5137 23.8825 8.98072 23.6065 9.59191C23.3057 10.2583 23.2352 11.1543 23.8914 11.9718L25.4511 10.7199ZM32.812 14.2657C33.2569 13.705 33.9631 12.1585 32.8085 10.7199L31.2488 11.9718C31.4244 12.1906 31.4497 12.3874 31.4267 12.5646C31.3994 12.775 31.2996 12.9542 31.2453 13.0226L32.812 14.2657ZM32.8085 10.7199C32.7465 10.6426 32.7437 10.6019 32.7428 10.5884C32.7411 10.5632 32.7448 10.5077 32.7867 10.4149C32.8805 10.2072 33.0859 9.98873 33.2531 9.86528L32.0651 8.25631C31.7165 8.5137 31.2398 8.98072 30.9639 9.59191C30.6631 10.2583 30.5926 11.1543 31.2488 11.9718L32.8085 10.7199Z" fill="#E68541"/>
</g>
<path d="M48.208 28.5H44.3359V9.93945H54.9746V13.1641H48.208V17.9502H54.5049V21.1621H48.208V28.5ZM63.4775 28.5H59.6055V9.93945H70.2441V13.1641H63.4775V17.9502H69.7744V21.1621H63.4775V28.5ZM85.5645 28.5H74.875V9.93945H85.5645V13.1641H78.8105V17.2393H85.0947V20.4639H78.8105V25.25H85.5645V28.5ZM101.139 28.5H90.4492V9.93945H101.139V13.1641H94.3848V17.2393H100.669V20.4639H94.3848V25.25H101.139V28.5Z" fill="#FBF8F0"/>
<path d="M134.22 12.9482C133.466 12.9482 132.798 13.0964 132.214 13.3926C131.638 13.6803 131.152 14.0993 130.754 14.6494C130.365 15.1995 130.068 15.8639 129.865 16.6426C129.662 17.4212 129.561 18.2972 129.561 19.2705C129.561 20.5824 129.721 21.7038 130.043 22.6348C130.373 23.5573 130.881 24.264 131.566 24.7549C132.252 25.2373 133.136 25.4785 134.22 25.4785C134.973 25.4785 135.726 25.3939 136.479 25.2246C137.241 25.0553 138.066 24.8141 138.955 24.501V27.8018C138.134 28.1403 137.326 28.3815 136.53 28.5254C135.735 28.6777 134.842 28.7539 133.852 28.7539C131.939 28.7539 130.365 28.3604 129.129 27.5732C127.902 26.7777 126.992 25.6689 126.399 24.2471C125.807 22.8167 125.511 21.1494 125.511 19.2451C125.511 17.8402 125.701 16.5537 126.082 15.3857C126.463 14.2178 127.021 13.2064 127.758 12.3516C128.494 11.4967 129.404 10.8366 130.487 10.3711C131.571 9.9056 132.815 9.67285 134.22 9.67285C135.142 9.67285 136.065 9.79134 136.987 10.0283C137.918 10.2568 138.807 10.5742 139.653 10.9805L138.384 14.1797C137.69 13.8496 136.992 13.5618 136.289 13.3164C135.587 13.071 134.897 12.9482 134.22 12.9482ZM159.125 28.5H155.202V20.4893H147.852V28.5H143.916V9.93945H147.852V17.2139H155.202V9.93945H159.125V28.5Z" fill="#FBF8F0"/>
<g clip-path="url(#clip1_26_527)">
<path d="M173.337 27.127C174.705 25.7356 176.706 22.1369 173.337 18.7958C169.968 15.4547 170.869 11.8179 173.337 10.4603M168.065 27.1485C169.434 25.7571 171.434 22.1584 168.065 18.8173C164.697 15.4762 165.597 11.8394 168.065 10.4818M178.899 27.1485C180.267 25.7571 182.268 22.1584 178.899 18.8173C175.53 15.4762 176.431 11.8394 178.899 10.4818" stroke="#E68541" stroke-width="3" stroke-linecap="round" stroke-linejoin="round"/>
</g>
<path d="M203.802 28.5H198.8L190.726 14.459H190.611C190.645 15.043 190.675 15.6312 190.7 16.2236C190.726 16.8161 190.751 17.4085 190.776 18.001C190.802 18.585 190.827 19.1732 190.853 19.7656V28.5H187.336V9.93945H192.3L200.361 23.8408H200.45C200.433 23.2653 200.412 22.694 200.387 22.127C200.361 21.5599 200.336 20.9928 200.311 20.4258C200.294 19.8587 200.277 19.2917 200.26 18.7246V9.93945H203.802V28.5ZM226.333 19.1943C226.333 20.6247 226.155 21.9281 225.8 23.1045C225.444 24.2725 224.903 25.2796 224.175 26.126C223.455 26.9723 222.541 27.624 221.433 28.0811C220.324 28.5296 219.012 28.7539 217.497 28.7539C215.982 28.7539 214.67 28.5296 213.562 28.0811C212.453 27.624 211.535 26.9723 210.807 26.126C210.087 25.2796 209.55 24.2682 209.194 23.0918C208.839 21.9154 208.661 20.6077 208.661 19.1689C208.661 17.2477 208.974 15.5762 209.601 14.1543C210.235 12.724 211.209 11.6152 212.521 10.8281C213.832 10.041 215.5 9.64746 217.522 9.64746C219.537 9.64746 221.191 10.041 222.486 10.8281C223.79 11.6152 224.755 12.724 225.381 14.1543C226.016 15.5846 226.333 17.2646 226.333 19.1943ZM212.787 19.1943C212.787 20.4893 212.948 21.6064 213.27 22.5459C213.6 23.4769 214.112 24.1963 214.806 24.7041C215.5 25.2035 216.397 25.4531 217.497 25.4531C218.614 25.4531 219.52 25.2035 220.214 24.7041C220.908 24.1963 221.411 23.4769 221.725 22.5459C222.046 21.6064 222.207 20.4893 222.207 19.1943C222.207 17.2477 221.843 15.7158 221.115 14.5986C220.387 13.4814 219.19 12.9229 217.522 12.9229C216.414 12.9229 215.508 13.1768 214.806 13.6846C214.112 14.1839 213.6 14.9033 213.27 15.8428C212.948 16.7738 212.787 17.891 212.787 19.1943Z" fill="#FBF8F0"/>
<defs>
<clipPath id="clip0_26_527">
<rect width="22" height="22" fill="white" transform="translate(18.3159 7.79366)"/>
</clipPath>
<clipPath id="clip1_26_527">
<rect width="20" height="20" fill="white" transform="translate(163.316 8.79366)"/>
</clipPath>
</defs>
</svg>
